<svg xmlns="http://www.w3.org/2000/svg" width="900" height="520" viewBox="0 0 900 520">
<defs>
  <linearGradient id="gold" x1="0" y1="0" x2="1" y2="1">
    <stop offset="0" stop-color="#fff1a8"/><stop offset=".45" stop-color="#e9b83f"/><stop offset="1" stop-color="#8d5c08"/>
  </linearGradient>
  <linearGradient id="panel" x1="0" y1="0" x2="1" y2="1">
    <stop offset="0" stop-color="#17130c"/><stop offset="1" stop-color="#050505"/>
  </linearGradient>
  <filter id="glow"><feGaussianBlur stdDeviation="10" result="b"/><feMerge><feMergeNode in="b"/><feMergeNode in="SourceGraphic"/></feMerge></filter>
</defs>
<rect width="900" height="520" fill="#080808"/>
<rect x="16" y="16" width="868" height="488" rx="26" fill="url(#panel)" stroke="#7d5b1a"/>

<rect x="70" y="65" width="760" height="390" rx="18" fill="#2b1d09" opacity=".9"/>
<path d="M90 365 C230 250 350 390 470 255 S680 145 810 245" fill="none" stroke="#e0ae3d" stroke-width="5" opacity=".8"/>
<rect x="105" y="95" width="180" height="24" rx="6" fill="#b68a2b" opacity=".6"/>
<rect x="105" y="145" width="280" height="120" rx="12" fill="#090909" stroke="#72531b"/>
<rect x="410" y="145" width="360" height="52" rx="12" fill="#0b0b0b" stroke="#5c451b"/>
<rect x="410" y="215" width="170" height="110" rx="12" fill="#0b0b0b" stroke="#5c451b"/>
<rect x="600" y="215" width="170" height="110" rx="12" fill="#0b0b0b" stroke="#5c451b"/>
<text x="105" y="410" fill="#f2cc65" font-family="Arial" font-size="20" letter-spacing="4">AI SALES</text>
<text x="105" y="438" fill="#fff" font-family="Arial" font-size="24" font-weight="700" letter-spacing="2">COMMAND CENTER</text>

</svg>